<svg width="128" height="128" viewBox="0 0 128 128" fill="none" xmlns="http://www.w3.org/2000/svg">
<rect width="128" height="128" fill="white"/>
<path fill-rule="evenodd" clip-rule="evenodd" d="M114 83.0824C114 83.0824 97.6601 84.6688 90.2527 83.1631C111.93 75.0321 114 57.2646 114 50.7397C114 29.1577 93.6296 14 64.5447 14C17.5948 14 14 42.2073 14 50.8401C14 73.0245 33.2811 87.4795 63.1285 87.4795C67.5948 87.4795 71.7342 87.1784 75.4379 86.6764C73.9129 92.7997 72.17 114 114 114V83.0824ZM79.0252 50.8605C79.0252 56.9778 72.3204 61.9368 64.0497 61.9368C55.779 61.9368 49.0742 56.9778 49.0742 50.8605C49.0742 44.7432 55.779 39.7842 64.0497 39.7842C72.3204 39.7842 79.0252 44.7432 79.0252 50.8605Z" fill="#FF9500"/>
</svg>
