<svg width="528" height="156" viewBox="0 0 528 156" fill="none" xmlns="http://www.w3.org/2000/svg">
<path d="M24.9894 123H68.3701L74.7084 91.5158H79.4431L86.0259 123H129.588L152 33H112.935L109.162 64.0165H104.265L97.9112 33H61.1603L54.5094 64.7281H49.8096L45.8273 33H0L24.9894 123Z" fill="#222222"/>
<path fill-rule="evenodd" clip-rule="evenodd" d="M140 123H179.205L181.069 110.78H208.883L210.881 123H254L228.865 33H162.103L140 123ZM186.738 64.7225L202.158 64.7225L205.049 83.8147L197.504 83.8805H191.026H184.087L186.738 64.7225Z" fill="#222222"/>
<path fill-rule="evenodd" clip-rule="evenodd" d="M306 123H262V33H306V123Z" fill="#222222"/>
<path fill-rule="evenodd" clip-rule="evenodd" d="M337.17 65.8849H314V33H403.884L404 65.8849H380.971V123H337.17V65.8849Z" fill="#222222"/>
<path fill-rule="evenodd" clip-rule="evenodd" d="M528 117.971C528 117.971 509.046 119.923 500.453 118.071C525.599 108.07 528 86.2154 528 78.1899C528 51.6439 504.37 33 470.632 33C416.17 33 412 67.695 412 78.3134C412 105.6 434.366 123.38 468.989 123.38C474.17 123.38 478.972 123.009 483.268 122.392C481.499 129.924 479.477 156 528 156V117.971ZM487.429 78.3384C487.429 85.8627 479.652 91.9623 470.058 91.9623C460.464 91.9623 452.686 85.8627 452.686 78.3384C452.686 70.8142 460.464 64.7146 470.058 64.7146C479.652 64.7146 487.429 70.8142 487.429 78.3384Z" fill="#FF9500"/>
</svg>
