<svg width="200" height="200" viewBox="0 0 200 200" fill="none" xmlns="http://www.w3.org/2000/svg">
<path fill-rule="evenodd" clip-rule="evenodd" d="M200 138.165C200 138.165 167.32 141.338 152.505 138.326C195.861 122.064 200 86.5291 200 73.4795C200 30.3153 159.259 0 101.089 0C7.18958 0 0 56.4146 0 73.6802C0 118.049 38.5621 146.959 98.2571 146.959C107.19 146.959 115.468 146.357 122.876 145.353C119.826 157.599 116.34 200 200 200V138.165ZM130.05 73.721C130.05 85.9556 116.641 95.8737 100.099 95.8737C83.5579 95.8737 70.1484 85.9556 70.1484 73.721C70.1484 61.4865 83.5579 51.5684 100.099 51.5684C116.641 51.5684 130.05 61.4865 130.05 73.721Z" fill="#FF9500"/>
</svg>
